<svg xmlns="http://www.w3.org/2000/svg" width="96" height="49">
  <path d="M 10.797 1.531 L 11.578 3.151 C 10.779 3.743 10.137 4.283 9.65 4.77 C 9.164 5.258 8.704 6.05 8.27 7.147 C 7.835 8.244 7.619 9.524 7.619 10.987 L 7.619 20.65 C 7.619 22.079 6.577 23.837 4.493 25.927 C 6.646 28.087 7.723 29.863 7.723 31.255 L 7.723 40.919 C 7.723 42.975 8.053 44.602 8.713 45.804 C 9.372 47.005 10.362 48.041 11.683 48.912 L 10.901 50.531 C 8.609 49.207 7.115 47.745 6.421 46.143 C 5.726 44.541 5.379 41.755 5.379 37.785 L 5.379 31.569 C 5.379 30.907 5.1 30.15 4.546 29.296 C 3.989 28.443 3.53 27.843 3.165 27.494 C 2.623 26.983 2.076 26.478 1.524 25.979 C 2.357 25.318 3.191 24.447 4.024 23.367 C 4.858 22.288 5.274 21.278 5.274 20.337 L 5.274 14.017 C 5.274 10.186 5.63 7.478 6.343 5.893 C 7.054 4.309 8.538 2.855 10.797 1.531 Z M 50.794 8.677 L 50.794 43.385 L 48.498 43.385 L 48.498 15.44 L 36.148 31.75 L 44.504 43.385 L 25.083 43.385 L 33.394 31.75 L 21.09 15.44 L 21.09 43.385 L 18.794 43.385 L 18.794 8.677 L 34.771 29.86 Z M 34.771 33.589 L 29.491 41.197 L 40.051 41.197 Z M 83.302 38.299 C 81.853 39.895 80.18 41.191 78.28 42.039 C 76.366 42.93 74.281 43.389 72.172 43.385 C 69.999 43.385 67.963 42.937 66.018 42.039 C 64.118 41.191 62.444 39.895 60.996 38.299 C 59.548 36.703 58.417 34.858 57.603 32.814 C 56.788 30.669 56.381 28.375 56.381 26.031 C 56.381 23.687 56.788 21.394 57.603 19.249 C 58.417 17.205 59.548 15.359 60.996 13.763 C 62.444 12.168 64.118 10.871 66.018 10.024 C 67.963 9.126 69.999 8.677 72.172 8.677 C 74.297 8.677 76.334 9.126 78.28 10.024 C 80.18 10.871 81.853 12.168 83.302 13.763 L 81.718 15.509 C 79.139 12.717 75.746 11.17 72.172 11.17 C 68.552 11.17 65.159 12.717 62.58 15.509 C 60.046 18.301 58.643 22.042 58.643 26.031 C 58.643 30.021 60.046 33.761 62.58 36.553 C 65.159 39.346 68.552 40.892 72.172 40.892 C 75.746 40.892 79.139 39.346 81.718 36.553 Z M 88.251 50.531 L 87.47 48.912 C 88.269 48.319 88.911 47.78 89.397 47.293 C 89.884 46.804 90.344 46.013 90.778 44.916 C 91.212 43.819 91.429 42.539 91.429 41.076 L 91.429 31.412 C 91.429 29.983 92.47 28.225 94.554 26.136 C 92.402 23.976 91.324 22.2 91.324 20.808 L 91.324 11.143 C 91.324 9.088 90.995 7.46 90.334 6.259 C 89.676 5.057 88.685 4.022 87.365 3.151 L 88.146 1.531 C 90.439 2.855 91.932 4.318 92.627 5.919 C 93.322 7.521 93.669 10.307 93.669 14.277 L 93.669 20.494 C 93.669 21.155 93.947 21.913 94.502 22.766 C 95.058 23.619 95.518 24.22 95.883 24.568 C 96.424 25.08 96.971 25.585 97.524 26.083 C 96.69 26.744 95.857 27.616 95.023 28.696 C 94.19 29.775 93.773 30.785 93.773 31.725 L 93.773 38.046 C 93.773 41.877 93.417 44.584 92.705 46.169 C 91.993 47.754 90.509 49.207 88.251 50.531 Z" fill="#FFF"></path>
</svg>
